# xmcd
#
# Track frame offsets:
#	150
#	14153
#	26133
#	38014
#	61256
#	74414
#	84889
#	99999
#	116862
#	129333
#	140782
#	153563
#	166375
#	178327
#	192112
#
# Disc length: 2719 seconds
#
# Revision: 1
# Processed by: cddbd v1.5.2PL0 Copyright (c) Steve Scherf et al.
# Submitted via: audiograbber 1.83.01
#
DISCID=d30a9d0f
DTITLE=Various Artist - 60 Greatest Trucker and Country Hits - CD3
DYEAR=2018
DGENRE=Country
TTITLE0=John Denver - Take Me Home Country Roads (Concert Recording)
TTITLE1=Lynn Anderson - Rose Garden
TTITLE2=Don Williams - Tulsa Time
TTITLE3=Olivia Newton-John - If You Could Read My Mind
TTITLE4=Kenny Rogers - Ruby, Don't Take Your Love To Town
TTITLE5=Floyd Cramer - San Antonio Rose
TTITLE6=Billie Jo Spears - Blanket On The Ground
TTITLE7=Linda Ronstadt - I'm Gonna Love You
TTITLE8=Sonny James - Running Bear
TTITLE9=Don Gibson - Oh Lonesome Me
TTITLE10=Stella Parton - Legs
TTITLE11=Faron Young - It's Four In The Morning
TTITLE12=Tennessee Ernie Ford - Sixteen Tons
TTITLE13=Anne Murray - The Last Thing On My Mind
TTITLE14=Johnny Cash and June Carter - Jackson (Live)
EXTD=
EXTT0=
EXTT1=
EXTT2=
EXTT3=
EXTT4=
EXTT5=
EXTT6=
EXTT7=
EXTT8=
EXTT9=
EXTT10=
EXTT11=
EXTT12=
EXTT13=
EXTT14=
PLAYORDER=
